<svg width="787" height="820" viewBox="0 0 787 820" fill="none" xmlns="http://www.w3.org/2000/svg">
<mask id="mask0" mask-type="alpha" maskUnits="userSpaceOnUse" x="6" y="184" width="188" height="196">
<rect x="97.4587" y="184.412" width="118.578" height="154.667" transform="rotate(36.1599 97.4587 184.412)" fill="#C4C4C4"/>
</mask>
<g mask="url(#mask0)">
<mask id="path-2-inside-1" fill="white">
<path fill-rule="evenodd" clip-rule="evenodd" d="M303.303 263.943C334.58 248.983 367.274 240.457 399.887 237.838C397.336 238.966 394.794 240.135 392.26 241.347C366.403 253.714 343.362 269.596 323.435 288.146C323.449 288.155 323.462 288.165 323.476 288.174C310.281 300.773 298.494 314.558 288.206 329.273C319.201 354.247 345.235 386.372 363.557 424.678C408.807 519.283 395.186 626.848 337.315 705.945C322.767 692.434 309.039 677.859 296.262 662.266C294.124 681.295 290.766 700.13 286.227 718.653C253.985 693.369 226.921 660.462 208.044 620.995C175.483 552.921 173.404 478.135 196.361 412.075C194.95 392.556 194.845 373.061 196.001 353.715C157.888 356.707 119.896 351.635 84.4129 339.344C100.946 312.779 125.003 290.461 155.322 275.959C199.309 254.92 247.827 254.468 289.982 270.758C294.335 268.381 298.776 266.108 303.303 263.943Z"/>
</mask>
<path d="M399.887 237.838L402.313 243.326L399.407 231.857L399.887 237.838ZM303.303 263.943L305.892 269.355V269.355L303.303 263.943ZM392.26 241.347L389.672 235.934V235.934L392.26 241.347ZM323.435 288.146L319.347 283.755L313.804 288.914L320.095 293.13L323.435 288.146ZM323.476 288.174L327.619 292.513L333.024 287.352L326.817 283.19L323.476 288.174ZM288.206 329.273L283.289 325.835L280.077 330.428L284.442 333.945L288.206 329.273ZM363.557 424.678L368.969 422.089L363.557 424.678ZM337.315 705.945L333.232 710.342L338.174 714.932L342.157 709.488L337.315 705.945ZM296.262 662.266L300.902 658.463L291.887 647.461L290.299 661.597L296.262 662.266ZM286.227 718.653L282.525 723.374L289.842 729.112L292.055 720.08L286.227 718.653ZM208.044 620.995L213.456 618.406L208.044 620.995ZM196.361 412.075L202.028 414.044L202.434 412.876L202.345 411.642L196.361 412.075ZM196.001 353.715L201.99 354.073L202.402 347.194L195.532 347.733L196.001 353.715ZM84.4129 339.344L79.3189 336.173L75.3481 342.553L82.449 345.013L84.4129 339.344ZM155.322 275.959L157.911 281.372H157.911L155.322 275.959ZM289.982 270.758L287.819 276.354L290.414 277.357L292.857 276.024L289.982 270.758ZM399.407 231.857C366.073 234.534 332.664 243.248 300.714 258.53L305.892 269.355C336.497 254.717 368.474 246.38 400.367 243.819L399.407 231.857ZM394.849 246.759C397.329 245.574 399.817 244.429 402.313 243.326L397.462 232.35C394.856 233.502 392.259 234.696 389.672 235.934L394.849 246.759ZM327.523 292.538C347.01 274.398 369.547 258.862 394.849 246.759L389.672 235.934C363.259 248.567 339.713 264.795 319.347 283.755L327.523 292.538ZM320.095 293.13C320.113 293.143 320.12 293.147 320.134 293.157L326.817 283.19C326.805 283.182 326.784 283.168 326.775 283.162L320.095 293.13ZM319.332 283.834C305.847 296.711 293.802 310.798 283.289 325.835L293.123 332.711C303.187 318.318 314.715 304.835 327.619 292.513L319.332 283.834ZM368.969 422.089C350.252 382.958 323.649 350.126 291.971 324.601L284.442 333.945C314.754 358.369 340.217 389.787 358.144 427.267L368.969 422.089ZM342.157 709.488C401.281 628.679 415.21 518.765 368.969 422.089L358.144 427.267C402.403 519.8 389.092 625.017 332.473 702.402L342.157 709.488ZM291.621 666.069C304.572 681.874 318.486 696.647 333.232 710.342L341.398 701.549C327.047 688.221 313.507 673.844 300.902 658.463L291.621 666.069ZM292.055 720.08C296.654 701.309 300.058 682.221 302.224 662.936L290.299 661.597C288.191 680.368 284.877 698.95 280.4 717.225L292.055 720.08ZM202.631 623.584C221.915 663.903 249.572 697.533 282.525 723.374L289.93 713.931C258.398 689.204 231.927 657.022 213.456 618.406L202.631 623.584ZM190.693 410.105C167.239 477.599 169.361 554.026 202.631 623.584L213.456 618.406C181.605 551.815 179.57 478.672 202.028 414.044L190.693 410.105ZM190.012 353.357C188.84 372.965 188.946 392.723 190.376 412.507L202.345 411.642C200.954 392.388 200.85 373.158 201.99 354.073L190.012 353.357ZM195.532 347.733C158.257 350.659 121.092 345.7 86.3768 333.674L82.449 345.013C118.7 357.571 157.52 362.754 196.471 359.697L195.532 347.733ZM89.5069 342.514C105.454 316.891 128.653 295.366 157.911 281.372L152.733 270.546C121.352 285.556 96.4386 308.667 79.3189 336.173L89.5069 342.514ZM157.911 281.372C200.345 261.075 247.142 260.635 287.819 276.354L292.144 265.161C248.513 248.3 198.272 248.765 152.733 270.546L157.911 281.372ZM300.714 258.53C296.09 260.742 291.554 263.064 287.107 265.491L292.857 276.024C297.116 273.699 301.461 271.475 305.892 269.355L300.714 258.53Z" fill="#1DA1F2" mask="url(#path-2-inside-1)"/>
</g>
<mask id="mask1" mask-type="alpha" maskUnits="userSpaceOnUse" x="0" y="0" width="787" height="820">
<rect x="384.252" y="0.880005" width="498.099" height="649.694" transform="rotate(36.1599 384.252 0.880005)" fill="#C4C4C4"/>
</mask>
<g mask="url(#mask1)">
<mask id="path-5-inside-2" fill="white">
<path fill-rule="evenodd" clip-rule="evenodd" d="M303.303 263.943C334.58 248.983 367.274 240.458 399.887 237.839C397.336 238.966 394.794 240.135 392.261 241.347C366.403 253.715 343.362 269.597 323.435 288.147C323.449 288.156 323.462 288.165 323.476 288.174C310.281 300.774 298.494 314.558 288.206 329.273C319.201 354.248 345.235 386.373 363.557 424.678C408.807 519.283 395.186 626.849 337.315 705.946C322.767 692.434 309.039 677.86 296.262 662.267C294.124 681.295 290.766 700.13 286.228 718.653C253.985 693.369 226.921 660.463 208.044 620.996C175.483 552.921 173.404 478.136 196.361 412.075C194.95 392.556 194.845 373.062 196.001 353.716C157.889 356.707 119.896 351.636 84.413 339.344C100.946 312.779 125.003 290.462 155.322 275.96C199.309 254.92 247.827 254.468 289.982 270.758C294.335 268.382 298.776 266.109 303.303 263.943Z"/>
</mask>
<path d="M399.887 237.839L402.313 243.326L399.407 231.858L399.887 237.839ZM303.303 263.943L305.892 269.356V269.356L303.303 263.943ZM392.261 241.347L389.672 235.934V235.934L392.261 241.347ZM323.435 288.147L319.347 283.755L313.804 288.915L320.095 293.131L323.435 288.147ZM323.476 288.174L327.62 292.514L333.025 287.353L326.817 283.191L323.476 288.174ZM288.206 329.273L283.289 325.835L280.077 330.429L284.442 333.945L288.206 329.273ZM363.557 424.678L368.969 422.089L363.557 424.678ZM337.315 705.946L333.232 710.342L338.174 714.932L342.157 709.489L337.315 705.946ZM296.262 662.267L300.903 658.464L291.887 647.462L290.299 661.597L296.262 662.267ZM286.228 718.653L282.525 723.375L289.842 729.113L292.055 720.081L286.228 718.653ZM208.044 620.996L213.456 618.407L208.044 620.996ZM196.361 412.075L202.028 414.045L202.434 412.877L202.345 411.643L196.361 412.075ZM196.001 353.716L201.991 354.074L202.402 347.195L195.532 347.734L196.001 353.716ZM84.413 339.344L79.319 336.174L75.3482 342.554L82.4491 345.014L84.413 339.344ZM155.322 275.96L152.733 270.547L155.322 275.96ZM289.982 270.758L287.819 276.355L290.414 277.358L292.857 276.024L289.982 270.758ZM399.407 231.858C366.073 234.535 332.664 243.249 300.714 258.53L305.892 269.356C336.497 254.717 368.475 246.38 400.368 243.819L399.407 231.858ZM394.85 246.76C397.329 245.574 399.817 244.43 402.313 243.326L397.462 232.351C394.856 233.502 392.259 234.697 389.672 235.934L394.85 246.76ZM327.523 292.538C347.01 274.398 369.547 258.862 394.85 246.76L389.672 235.934C363.259 248.568 339.714 264.796 319.347 283.755L327.523 292.538ZM320.095 293.131C320.113 293.143 320.12 293.148 320.135 293.158L326.817 283.191C326.805 283.182 326.784 283.168 326.776 283.163L320.095 293.131ZM319.332 283.835C305.847 296.711 293.802 310.799 283.289 325.835L293.124 332.711C303.187 318.318 314.715 304.836 327.62 292.514L319.332 283.835ZM368.969 422.089C350.253 382.958 323.649 350.126 291.971 324.601L284.442 333.945C314.754 358.369 340.217 389.788 358.144 427.267L368.969 422.089ZM342.157 709.489C401.281 628.68 415.211 518.766 368.969 422.089L358.144 427.267C402.403 519.801 389.092 625.017 332.473 702.403L342.157 709.489ZM291.621 666.07C304.572 681.874 318.486 696.647 333.232 710.342L341.398 701.549C327.047 688.221 313.507 673.845 300.903 658.464L291.621 666.07ZM292.055 720.081C296.654 701.31 300.058 682.221 302.224 662.936L290.299 661.597C288.191 680.369 284.877 698.951 280.4 717.225L292.055 720.081ZM202.631 623.585C221.916 663.903 249.572 697.533 282.525 723.375L289.93 713.932C258.398 689.205 231.927 657.023 213.456 618.407L202.631 623.585ZM190.693 410.106C167.239 477.599 169.361 554.027 202.631 623.585L213.456 618.407C181.605 551.816 179.57 478.673 202.028 414.045L190.693 410.106ZM190.012 353.357C188.84 372.965 188.947 392.723 190.376 412.508L202.345 411.643C200.954 392.389 200.85 373.159 201.991 354.074L190.012 353.357ZM195.532 347.734C158.257 350.66 121.092 345.7 86.3769 333.675L82.4491 345.014C118.7 357.571 157.52 362.754 196.471 359.697L195.532 347.734ZM89.507 342.515C105.454 316.892 128.654 295.366 157.911 281.372L152.733 270.547C121.352 285.557 96.4387 308.667 79.319 336.174L89.507 342.515ZM157.911 281.372C200.346 261.076 247.142 260.636 287.819 276.355L292.145 265.161C248.513 248.301 198.272 248.765 152.733 270.547L157.911 281.372ZM300.714 258.53C296.09 260.742 291.554 263.064 287.107 265.492L292.857 276.024C297.116 273.699 301.461 271.475 305.892 269.356L300.714 258.53Z" fill="black" mask="url(#path-5-inside-2)"/>
</g>
</svg>
